<svg width="90" height="24" viewBox="0 0 90 24" fill="none" xmlns="http://www.w3.org/2000/svg">
<path d="M9 2C6.38 2 4.25 4.13 4.25 6.75C4.25 9.32 6.26 11.4 8.88 11.49C8.96 11.48 9.04 11.48 9.1 11.49C9.12 11.49 9.13 11.49 9.15 11.49C9.16 11.49 9.16 11.49 9.17 11.49C11.73 11.4 13.74 9.32 13.75 6.75C13.75 4.13 11.62 2 9 2Z" fill="#90A3BF"/>
<path d="M14.08 14.1499C11.29 12.2899 6.73996 12.2899 3.92996 14.1499C2.65996 14.9999 1.95996 16.1499 1.95996 17.3799C1.95996 18.6099 2.65996 19.7499 3.91996 20.5899C5.31996 21.5299 7.15996 21.9999 8.99996 21.9999C10.84 21.9999 12.68 21.5299 14.08 20.5899C15.34 19.7399 16.04 18.5999 16.04 17.3599C16.03 16.1299 15.34 14.9899 14.08 14.1499Z" fill="#90A3BF"/>
<path d="M19.9904 7.3401C20.1504 9.2801 18.7704 10.9801 16.8604 11.2101C16.8504 11.2101 16.8504 11.2101 16.8404 11.2101H16.8104C16.7504 11.2101 16.6904 11.2101 16.6404 11.2301C15.6704 11.2801 14.7804 10.9701 14.1104 10.4001C15.1404 9.4801 15.7304 8.1001 15.6104 6.6001C15.5404 5.7901 15.2604 5.0501 14.8404 4.4201C15.2204 4.2301 15.6604 4.1101 16.1104 4.0701C18.0704 3.9001 19.8204 5.3601 19.9904 7.3401Z" fill="#90A3BF"/>
<path d="M21.9902 16.5904C21.9102 17.5604 21.2902 18.4004 20.2502 18.9704C19.2502 19.5204 17.9902 19.7804 16.7402 19.7504C17.4602 19.1004 17.8802 18.2904 17.9602 17.4304C18.0602 16.1904 17.4702 15.0004 16.2902 14.0504C15.6202 13.5204 14.8402 13.1004 13.9902 12.7904C16.2002 12.1504 18.9802 12.5804 20.6902 13.9604C21.6102 14.7004 22.0802 15.6304 21.9902 16.5904Z" fill="#90A3BF"/>
<path d="M30.756 18V17.048L33.64 13.926C34.2093 13.3193 34.662 12.82 34.998 12.428C35.3433 12.036 35.5953 11.686 35.754 11.378C35.9127 11.07 35.992 10.7433 35.992 10.398C35.992 9.82867 35.824 9.39 35.488 9.082C35.152 8.774 34.7087 8.62 34.158 8.62C33.598 8.62 33.122 8.78333 32.73 9.11C32.338 9.42733 32.0673 9.88 31.918 10.468L30.672 10.146C30.7933 9.586 31.0173 9.10067 31.344 8.69C31.6707 8.27933 32.0767 7.962 32.562 7.738C33.0473 7.514 33.5793 7.402 34.158 7.402C34.7927 7.402 35.348 7.528 35.824 7.78C36.3093 8.02267 36.6873 8.36333 36.958 8.802C37.238 9.24067 37.378 9.74933 37.378 10.328C37.378 10.7107 37.2987 11.084 37.14 11.448C36.9813 11.812 36.748 12.1993 36.44 12.61C36.132 13.0113 35.7307 13.478 35.236 14.01L32.66 16.81H37.602V18H30.756ZM41.9628 18V7.57H45.6448C46.3354 7.57 46.9421 7.70067 47.4648 7.962C47.9874 8.22333 48.3934 8.59667 48.6828 9.082C48.9814 9.56733 49.1308 10.1367 49.1308 10.79C49.1308 11.4433 48.9814 12.0127 48.6828 12.498C48.3934 12.974 47.9874 13.3473 47.4648 13.618C46.9514 13.8793 46.3448 14.01 45.6448 14.01H43.3348V18H41.9628ZM43.3348 12.75H45.6868C46.1068 12.75 46.4708 12.6707 46.7788 12.512C47.0868 12.3533 47.3248 12.1247 47.4928 11.826C47.6608 11.5273 47.7448 11.182 47.7448 10.79C47.7448 10.3887 47.6608 10.0433 47.4928 9.754C47.3248 9.45533 47.0868 9.22667 46.7788 9.068C46.4708 8.90933 46.1068 8.83 45.6868 8.83H43.3348V12.75ZM54.0308 18.168C53.3028 18.168 52.6541 17.9953 52.0848 17.65C51.5154 17.3047 51.0674 16.8333 50.7408 16.236C50.4141 15.6293 50.2508 14.9527 50.2508 14.206C50.2508 13.45 50.4094 12.778 50.7268 12.19C51.0534 11.602 51.4921 11.14 52.0428 10.804C52.6028 10.4587 53.2281 10.286 53.9188 10.286C54.4788 10.286 54.9734 10.3887 55.4028 10.594C55.8414 10.79 56.2101 11.0607 56.5088 11.406C56.8168 11.742 57.0501 12.1293 57.2088 12.568C57.3768 12.9973 57.4608 13.4453 57.4608 13.912C57.4608 14.0147 57.4514 14.1313 57.4328 14.262C57.4234 14.3833 57.4094 14.5 57.3908 14.612H51.2028V13.492H56.6348L56.0188 13.996C56.1028 13.5107 56.0561 13.0767 55.8788 12.694C55.7014 12.3113 55.4401 12.008 55.0948 11.784C54.7494 11.56 54.3574 11.448 53.9188 11.448C53.4801 11.448 53.0788 11.56 52.7148 11.784C52.3508 12.008 52.0661 12.33 51.8608 12.75C51.6648 13.1607 51.5854 13.6507 51.6228 14.22C51.5854 14.7707 51.6694 15.256 51.8748 15.676C52.0894 16.0867 52.3881 16.4087 52.7708 16.642C53.1628 16.866 53.5874 16.978 54.0448 16.978C54.5488 16.978 54.9734 16.8613 55.3188 16.628C55.6641 16.3947 55.9441 16.096 56.1588 15.732L57.2508 16.292C57.1014 16.6373 56.8681 16.9547 56.5508 17.244C56.2428 17.524 55.8741 17.748 55.4448 17.916C55.0248 18.084 54.5534 18.168 54.0308 18.168ZM62.7424 18.168C62.0144 18.168 61.3564 18 60.7684 17.664C60.1804 17.3187 59.7137 16.8473 59.3684 16.25C59.0231 15.6527 58.8504 14.976 58.8504 14.22C58.8504 13.464 59.0184 12.792 59.3544 12.204C59.6997 11.616 60.1664 11.1493 60.7544 10.804C61.3424 10.4587 62.0051 10.286 62.7424 10.286C63.4704 10.286 64.1284 10.4587 64.7164 10.804C65.3044 11.14 65.7664 11.602 66.1024 12.19C66.4477 12.778 66.6204 13.4547 66.6204 14.22C66.6204 14.9853 66.4431 15.6667 66.0884 16.264C65.7337 16.852 65.2624 17.3187 64.6744 17.664C64.0957 18 63.4517 18.168 62.7424 18.168ZM62.7424 16.908C63.2091 16.908 63.6291 16.7913 64.0024 16.558C64.3851 16.3247 64.6837 16.0027 64.8984 15.592C65.1224 15.1813 65.2344 14.724 65.2344 14.22C65.2344 13.7067 65.1224 13.254 64.8984 12.862C64.6837 12.4607 64.3851 12.1433 64.0024 11.91C63.6291 11.6673 63.2091 11.546 62.7424 11.546C62.2664 11.546 61.8371 11.6673 61.4544 11.91C61.0811 12.1433 60.7824 12.4607 60.5584 12.862C60.3344 13.254 60.2224 13.7067 60.2224 14.22C60.2224 14.724 60.3344 15.1813 60.5584 15.592C60.7824 16.0027 61.0811 16.3247 61.4544 16.558C61.8371 16.7913 62.2664 16.908 62.7424 16.908ZM68.3185 20.8V10.454H69.5925V12.078L69.4245 11.756C69.7045 11.308 70.0872 10.9533 70.5725 10.692C71.0579 10.4213 71.6132 10.286 72.2385 10.286C72.9479 10.286 73.5825 10.4587 74.1425 10.804C74.7119 11.1493 75.1599 11.6207 75.4865 12.218C75.8132 12.806 75.9765 13.478 75.9765 14.234C75.9765 14.9713 75.8132 15.6387 75.4865 16.236C75.1599 16.8333 74.7119 17.3047 74.1425 17.65C73.5825 17.9953 72.9432 18.168 72.2245 18.168C71.6179 18.168 71.0625 18.0327 70.5585 17.762C70.0639 17.4913 69.6812 17.1087 69.4105 16.614L69.6205 16.39V20.8H68.3185ZM72.1265 16.908C72.6025 16.908 73.0272 16.7913 73.4005 16.558C73.7739 16.3247 74.0632 16.0073 74.2685 15.606C74.4832 15.1953 74.5905 14.738 74.5905 14.234C74.5905 13.7113 74.4832 13.254 74.2685 12.862C74.0632 12.4607 73.7739 12.1433 73.4005 11.91C73.0272 11.6673 72.6025 11.546 72.1265 11.546C71.6505 11.546 71.2212 11.6627 70.8385 11.896C70.4652 12.1293 70.1665 12.4513 69.9425 12.862C69.7279 13.2633 69.6205 13.7207 69.6205 14.234C69.6205 14.738 69.7279 15.1953 69.9425 15.606C70.1665 16.0073 70.4652 16.3247 70.8385 16.558C71.2212 16.7913 71.6505 16.908 72.1265 16.908ZM77.6838 18V7.402H78.9858V18H77.6838ZM84.478 18.168C83.75 18.168 83.1014 17.9953 82.532 17.65C81.9627 17.3047 81.5147 16.8333 81.188 16.236C80.8614 15.6293 80.698 14.9527 80.698 14.206C80.698 13.45 80.8567 12.778 81.174 12.19C81.5007 11.602 81.9394 11.14 82.49 10.804C83.05 10.4587 83.6754 10.286 84.366 10.286C84.926 10.286 85.4207 10.3887 85.85 10.594C86.2887 10.79 86.6574 11.0607 86.956 11.406C87.264 11.742 87.4974 12.1293 87.656 12.568C87.824 12.9973 87.908 13.4453 87.908 13.912C87.908 14.0147 87.8987 14.1313 87.88 14.262C87.8707 14.3833 87.8567 14.5 87.838 14.612H81.65V13.492H87.082L86.466 13.996C86.55 13.5107 86.5034 13.0767 86.326 12.694C86.1487 12.3113 85.8874 12.008 85.542 11.784C85.1967 11.56 84.8047 11.448 84.366 11.448C83.9274 11.448 83.526 11.56 83.162 11.784C82.798 12.008 82.5134 12.33 82.308 12.75C82.112 13.1607 82.0327 13.6507 82.07 14.22C82.0327 14.7707 82.1167 15.256 82.322 15.676C82.5367 16.0867 82.8354 16.4087 83.218 16.642C83.61 16.866 84.0347 16.978 84.492 16.978C84.996 16.978 85.4207 16.8613 85.766 16.628C86.1114 16.3947 86.3914 16.096 86.606 15.732L87.698 16.292C87.5487 16.6373 87.3154 16.9547 86.998 17.244C86.69 17.524 86.3214 17.748 85.892 17.916C85.472 18.084 85.0007 18.168 84.478 18.168Z" fill="#90A3BF"/>
</svg>
